<?xml version="1.0" encoding="UTF-8"?>
<svg id="Layer_1" xmlns="http://www.w3.org/2000/svg" viewBox="0 0 1920 1080">
  <defs>
    <style>
      .cls-1 {
        font-family: Arial-Black, Arial;
        font-size: 48.51px;
        font-weight: 800;
      }

      .cls-1, .cls-2, .cls-3, .cls-4 {
        fill: #44086c;
      }

      .cls-2 {
        font-family: Arial-BoldMT, Arial;
        font-size: 180.8px;
        font-weight: 700;
      }

      .cls-3 {
        font-family: Adam-Medium, Adam;
        font-size: 61.74px;
        font-weight: 500;
        letter-spacing: .1em;
      }
    </style>
  </defs>
  <text class="cls-2" transform="translate(537.78 581.85)"><tspan x="0" y="0">SacredSecret </tspan></text>
  <text class="cls-3" transform="translate(1161.01 660.75) scale(.99 1)"><tspan x="0" y="0">Empowering You </tspan></text>
  <path class="cls-4" d="M268.12,538.55v-158.23s-3.02-27.43,22.38-26.13h26.69s22.22-1.68,19.42,26.88v46.38s-5.37,47.24,30.26,47.96l31.2-.28s34.93,4.75,31.34-47.68l.14-72.93s0-81.75-102.08-87.35l-14.03-.94-21.67.56s-115.64-.56-115.64,97.3v132.15l91.99,42.31Z"/>
  <text class="cls-1" transform="translate(284.94 419.56)"><tspan x="0" y="0">S</tspan><tspan x="0" y="55.12">E</tspan><tspan x="0" y="110.24">C</tspan><tspan x="0" y="165.36">R</tspan><tspan x="0" y="220.49">E</tspan><tspan x="0" y="275.61">T</tspan></text>
  <path class="cls-4" d="M337.77,541.45v158.23s3.02,27.43-22.38,26.13h-26.69s-22.22,1.68-19.42-26.88v-46.38s5.37-49.44-30.26-50.17l-35.61.28s-30.94-6.53-26.93,49.89l-.14,72.93s0,81.75,102.08,87.35l14.03.94,21.67-.56s115.64.56,115.64-97.3v-132.15s-91.99-42.31-91.99-42.31Z"/>
</svg>