<svg version="1.1" id="Layer_1" xmlns="http://www.w3.org/2000/svg" xmlns:xlink="http://www.w3.org/1999/xlink" x="0px" y="0px"
	 width="100%" viewBox="0 0 512 512" enable-background="new 0 0 512 512" xml:space="preserve">
<path fill="#000000" opacity="1.000000" stroke="none" 
	d="
M1.000000,234.000000 
	C1.000000,228.977905 1.000000,223.955811 1.118212,218.138290 
	C5.757706,204.634995 14.412406,196.810547 27.966034,194.905075 
	C30.617146,194.532349 31.405844,192.864624 32.110310,190.643234 
	C34.423584,183.348816 36.745987,176.050110 39.353260,168.857590 
	C44.592747,154.403748 51.494579,140.743256 59.556076,127.660553 
	C61.544296,124.433922 64.147049,122.287605 68.165565,123.115433 
	C71.969795,123.899109 74.348152,126.401230 75.034302,130.183899 
	C75.619614,133.410736 73.516396,135.897476 71.992241,138.423569 
	C61.956253,155.057053 54.418522,172.765869 48.643509,191.292343 
	C47.146450,196.094971 46.954140,199.886520 51.835106,202.820999 
	C53.469986,203.803909 54.739372,205.592224 55.826843,207.242386 
	C57.506485,209.791168 59.356701,210.520126 62.518394,209.885971 
	C90.629044,204.247879 119.039619,201.199234 147.708435,200.698532 
	C150.564621,200.648651 152.212341,199.433167 153.779266,197.184875 
	C161.188553,186.553757 171.333389,181.767838 184.316010,183.495483 
	C186.859528,183.833969 188.791794,183.224319 190.392014,181.074219 
	C204.364731,162.300217 220.174454,145.201355 237.673920,129.672897 
	C239.692032,127.882095 240.380402,126.079880 239.383728,123.537453 
	C237.517319,118.776482 237.216156,113.776176 237.830643,108.783646 
	C238.141190,106.260513 237.516281,104.743752 235.316467,103.478996 
	C213.424362,90.892303 190.389389,80.960381 166.276688,73.488617 
	C163.646530,72.673607 162.075531,73.475555 160.422668,75.685860 
	C150.738220,88.636414 135.993591,92.522507 121.456383,85.803276 
	C118.091370,84.247932 115.960213,84.787697 113.579430,87.270668 
	C108.276810,92.800911 102.806343,98.169899 97.426643,103.626648 
	C93.159195,107.955200 88.800499,108.653824 85.190910,105.536270 
	C81.229095,102.114494 81.269562,97.642479 85.420494,92.848862 
	C90.989929,86.417114 96.983849,80.384277 103.361786,74.765968 
	C105.928162,72.505272 106.786285,70.334930 105.697380,66.953300 
	C103.932487,61.472313 103.853470,55.744106 105.373390,50.206459 
	C111.194847,28.996851 136.082016,20.460403 153.764297,33.644566 
	C156.603745,35.761700 158.782837,36.456070 162.236588,34.809052 
	C201.835648,15.925056 243.472809,8.091626 287.312500,11.504778 
	C315.652985,13.711237 342.791290,20.315828 368.595825,32.113911 
	C373.922119,34.549129 377.768158,34.911610 383.071106,31.523626 
	C393.410706,24.917788 404.420135,25.897894 414.654510,32.396618 
	C424.585876,38.702953 430.095551,48.315113 428.718475,59.789196 
	C427.824829,67.235222 428.778870,72.197479 435.009857,76.127747 
	C436.249115,76.909416 437.264496,78.114166 438.225098,79.256676 
	C441.051453,82.618195 444.053497,84.225258 448.635590,82.158112 
	C451.099396,81.046608 454.188873,80.861748 456.966064,80.977524 
	C480.322449,81.951225 494.405365,107.280052 482.695679,127.464119 
	C480.630859,131.023239 480.708405,133.595932 482.655701,137.018753 
	C491.749634,153.003387 498.573578,169.947479 503.757965,187.597427 
	C508.413757,203.447876 510.840454,219.690491 513.000000,236.000000 
	C513.000000,249.687561 513.000000,263.375122 512.945923,277.926788 
	C511.345245,289.464478 510.234131,300.206390 507.835266,310.745789 
	C496.578033,360.204712 472.442963,402.334106 435.646149,437.186523 
	C432.658203,440.016571 431.587250,442.396210 432.752045,446.635040 
	C436.121765,458.897705 431.355896,471.191498 420.986511,478.790497 
	C410.743225,486.297028 397.251862,487.222443 386.862885,480.006348 
	C382.099884,476.698029 378.381348,476.505188 373.891632,479.451599 
	C372.786835,480.176605 371.528900,480.677856 370.317383,481.229370 
	C326.929138,500.981842 281.530396,507.385773 234.403046,501.021820 
	C208.355164,497.504364 183.397812,489.983398 159.868958,478.075500 
	C157.350616,476.800964 155.278442,476.238312 152.524338,478.056335 
	C141.825119,485.119171 130.597000,485.600983 119.564598,479.039337 
	C108.133888,472.240814 102.890068,461.713898 104.900551,448.654846 
	C105.814896,442.715790 103.737183,439.601959 99.895073,435.920502 
	C63.009026,400.577026 39.526314,357.720459 28.544664,307.887512 
	C25.094763,292.232452 23.769583,276.365936 23.012453,260.415222 
	C22.909170,258.239319 22.957891,255.875900 20.469200,254.901413 
	C10.615945,251.043350 4.706504,243.558899 1.000000,234.000000 
M187.685730,243.552521 
	C183.797409,244.631104 179.838089,245.139191 175.850113,244.412170 
	C172.208649,243.748306 170.114441,244.886337 168.555191,248.447144 
	C164.481476,257.750092 160.412872,267.049408 156.958481,276.600250 
	C140.530685,322.020416 134.547318,368.826965 138.367599,416.938507 
	C138.628265,420.221344 139.985199,422.032013 143.298889,422.812225 
	C149.303757,424.226105 154.486115,427.372894 158.260269,432.212494 
	C160.660797,435.290649 162.834747,435.006958 165.994995,433.803375 
	C207.832275,417.869659 246.629486,396.481354 282.127167,369.188446 
	C310.638062,347.267456 336.187103,322.292023 358.839111,294.343445 
	C361.006073,291.669830 361.538361,289.486694 359.697357,286.339111 
	C357.320679,282.275543 355.853729,277.584106 356.636047,272.924561 
	C357.758545,266.238922 354.279480,263.631226 348.928284,261.088928 
	C306.691864,241.022888 262.528625,227.529724 216.192841,221.042130 
	C211.741470,220.418854 209.706802,221.047455 208.022110,225.433914 
	C204.548401,234.478424 197.782272,240.422455 187.685730,243.552521 
M312.639893,365.170959 
	C282.945129,390.710571 250.627274,412.289062 215.534866,429.724609 
	C201.202682,436.845490 186.669785,443.528442 171.547058,448.724792 
	C165.539993,450.788910 165.878647,455.250946 165.282883,459.759399 
	C164.701385,464.159821 168.640060,464.233124 171.041550,465.424103 
	C175.807220,467.787537 180.743088,469.839569 185.707550,471.765289 
	C225.954315,487.376862 267.369781,491.156219 309.791290,483.506439 
	C330.204010,479.825470 349.772614,473.375061 368.411774,464.191162 
	C370.957794,462.936615 372.794189,461.615448 372.606262,458.234192 
	C371.642426,440.891449 377.924408,431.040253 394.236664,424.208008 
	C396.542389,423.242279 397.604797,421.922394 397.861237,419.464142 
	C399.053375,408.034546 399.696777,396.585815 399.648315,385.091217 
	C399.622070,378.867371 402.335724,375.710022 407.432831,375.669220 
	C412.582886,375.627991 415.281036,378.771423 415.370239,384.926819 
	C415.534424,396.252258 415.451080,407.574677 414.299591,418.853241 
	C413.904602,422.722107 414.627899,425.549500 418.648895,427.251801 
	C422.633423,428.938690 424.175018,425.787567 426.135071,423.910400 
	C446.307343,404.590393 462.492859,382.354706 474.790436,357.249725 
	C476.501129,353.757416 475.955200,351.592224 473.317871,349.002960 
	C454.372711,330.402924 434.140198,313.362671 412.329956,298.215759 
	C410.547760,296.978058 408.826813,294.739655 406.188416,296.855896 
	C403.765289,298.799530 404.346497,301.126648 404.971283,303.668549 
	C407.709045,314.807526 410.152161,326.006775 411.695007,337.391418 
	C412.254974,341.523468 411.185974,344.629547 407.229034,346.380280 
	C401.754791,348.802338 396.837616,345.836151 395.771698,339.226440 
	C394.129944,329.045410 392.167480,318.937347 389.664124,308.933502 
	C389.220245,307.159851 389.106506,304.709503 387.402100,304.163055 
	C383.487946,302.908234 379.386414,301.926270 375.302338,301.623138 
	C372.593201,301.422089 371.394592,304.486023 369.865601,306.353424 
	C352.621124,327.414795 333.719116,346.855743 312.639893,365.170959 
M122.560715,360.173920 
	C122.973244,355.205566 123.173874,350.208923 123.832130,345.273346 
	C128.681778,308.910980 138.567993,274.003204 154.488129,240.898590 
	C156.240967,237.253693 156.901688,234.261765 153.955002,230.938919 
	C151.962357,228.691925 150.667419,225.774033 150.229385,222.842606 
	C149.482681,217.845703 146.655975,216.945709 142.165955,217.150925 
	C117.036102,218.299438 92.227615,222.216217 67.345497,225.516403 
	C63.970394,225.964050 61.987373,227.586105 61.499779,231.166092 
	C60.022728,242.010849 53.842953,249.444550 44.022896,253.756302 
	C40.368687,255.360764 39.143608,257.531555 39.307663,261.398499 
	C40.143867,281.108978 43.615242,300.357117 49.379402,319.176788 
	C61.572109,358.985382 80.873589,394.670959 110.922066,424.009979 
	C112.827164,425.870056 114.425163,428.599152 118.071953,426.774445 
	C121.489563,425.064453 123.301682,422.756134 122.601082,418.893768 
	C120.954628,409.816986 121.514778,400.608704 121.337891,391.485596 
	C121.141823,381.374146 121.078957,371.185760 122.560715,360.173920 
M417.848511,199.461823 
	C426.285034,181.513947 433.177826,162.972748 439.334076,144.134308 
	C440.470520,140.656723 440.000641,138.531799 437.020538,136.087097 
	C426.665894,127.592857 422.144867,113.888985 427.361145,101.996414 
	C430.552277,94.720879 428.383057,91.044449 423.119781,87.208786 
	C422.317291,86.623955 421.565948,85.936752 420.905975,85.194572 
	C418.902161,82.941185 416.980591,83.065498 414.350494,84.514137 
	C399.098480,92.914749 384.258759,90.007133 373.441620,76.504807 
	C371.713226,74.347427 370.179932,73.637390 367.551605,74.464859 
	C344.448853,81.738258 322.366272,91.309448 301.442780,103.533501 
	C299.352356,104.754791 298.265045,106.213814 298.902130,108.824234 
	C300.088226,113.684258 299.131287,118.462128 297.497528,123.028130 
	C296.430878,126.009209 297.108215,127.978447 299.391113,130.013367 
	C333.617462,160.521912 360.681732,196.462311 380.902924,237.598312 
	C383.784943,243.461182 394.247070,243.771652 397.600739,238.157272 
	C404.947388,225.858414 411.520172,213.145828 417.848511,199.461823 
M497.623840,260.406738 
	C497.804108,250.071365 496.903107,239.807205 495.728180,229.550720 
	C492.336182,199.940460 483.636322,172.025620 469.175049,145.941208 
	C468.004059,143.829102 467.128906,141.277222 463.662628,142.102219 
	C460.186462,142.929550 456.533936,142.589188 455.081909,147.341232 
	C444.482819,182.028442 429.954773,215.020569 411.599792,246.306335 
	C409.862549,249.267471 409.767487,251.444046 411.962280,254.351273 
	C416.761536,260.708405 418.520905,268.095093 417.464691,276.021729 
	C416.953918,279.854950 417.946991,282.498566 421.368073,284.835144 
	C442.041016,298.954620 461.177979,314.981323 479.273956,332.266418 
	C480.417114,333.358337 481.306000,335.012939 484.022156,334.599670 
	C492.902374,311.175110 496.658081,286.544678 497.623840,260.406738 
M274.751221,216.570114 
	C304.093384,224.430267 332.400604,235.040863 359.690369,248.391418 
	C361.614227,249.332596 363.733673,251.431305 366.078094,249.317520 
	C368.574249,247.066925 366.307922,244.901672 365.394257,243.036819 
	C346.556732,204.588348 321.028625,171.200882 289.266235,142.516022 
	C286.468719,139.989548 284.121826,139.842361 280.820374,141.389740 
	C272.713562,145.189331 264.275696,145.346573 256.213104,141.506195 
	C252.105774,139.549789 249.577881,140.561096 246.544418,143.338364 
	C231.768524,156.866364 218.162201,171.456085 205.995392,187.367111 
	C204.513336,189.305267 201.321411,191.370422 203.647232,194.208847 
	C206.709396,197.945908 207.049255,203.996216 213.825485,204.717209 
	C234.183258,206.883255 254.184662,211.099396 274.751221,216.570114 
M239.847733,28.428551 
	C238.042831,28.724642 236.241852,29.047617 234.432419,29.312740 
	C211.718964,32.640774 190.004532,39.224598 169.370483,49.308018 
	C167.475449,50.234081 165.145630,50.968132 165.572174,53.853439 
	C165.949890,56.408417 167.851822,57.210159 170.069153,57.873409 
	C195.529282,65.489090 219.757492,76.000229 242.837097,89.148659 
	C245.360962,90.586502 247.205292,90.431015 249.608795,88.754547 
	C261.662933,80.346657 275.059174,80.169556 286.828888,88.467033 
	C289.845428,90.593628 292.016937,90.356079 294.900604,88.649239 
	C303.500275,83.559082 312.446472,79.117592 321.518005,74.923294 
	C335.133575,68.628067 349.132874,63.339443 363.438171,58.856899 
	C366.140900,58.010002 367.569824,56.597622 367.749634,53.574886 
	C367.907623,50.918671 367.396912,49.272869 364.802063,48.049526 
	C339.380920,36.064678 312.604614,29.250069 284.622742,27.452724 
	C270.008881,26.514040 255.343262,26.706459 239.847733,28.428551 
M448.162811,124.492714 
	C454.335388,127.874962 460.266510,127.688103 465.727905,123.050629 
	C470.279083,119.186111 471.901886,112.747955 469.951416,107.185715 
	C467.911499,101.368523 462.454285,97.439659 456.302765,97.359482 
	C449.969025,97.276932 444.934906,100.581917 442.679169,106.303619 
	C440.005005,113.086655 441.538910,118.698158 448.162811,124.492714 
M400.814423,43.576199 
	C399.823669,43.513489 398.829071,43.360657 397.842743,43.402340 
	C390.000061,43.733784 383.321045,50.661724 383.404175,58.338524 
	C383.493896,66.623558 390.097717,72.863449 398.624481,72.720108 
	C406.894043,72.581100 412.738037,66.440926 412.693665,57.937984 
	C412.658142,51.133495 409.373993,46.966213 400.814423,43.576199 
M133.766068,72.765198 
	C143.022095,72.666267 149.255432,67.351662 149.652283,59.220474 
	C150.062103,50.823498 144.618439,44.345234 136.392670,43.440800 
	C128.991104,42.626987 121.956612,48.301174 120.546616,56.222633 
	C119.232948,63.602936 124.633339,70.785789 133.766068,72.765198 
M390.407166,258.156189 
	C381.067932,254.825531 369.663300,265.470795 372.913300,276.194794 
	C374.961365,282.952698 381.425690,287.801483 387.723816,287.269775 
	C394.756104,286.676086 400.353302,281.667450 401.515076,274.928650 
	C402.752930,267.748749 398.782166,261.385773 390.407166,258.156189 
M409.562836,440.731903 
	C403.528168,438.217163 397.789642,438.590149 392.905121,443.143616 
	C388.530365,447.221863 387.293976,452.465546 388.967926,458.182037 
	C390.769287,464.333771 396.507538,468.570831 402.652740,468.628906 
	C409.164917,468.690430 414.710449,464.620270 416.869110,458.194733 
	C419.020782,451.790070 416.655243,445.705383 409.562836,440.731903 
M171.463028,226.147156 
	C177.335800,229.795776 183.226837,229.609131 188.633347,225.487656 
	C192.979919,222.174225 195.033585,217.371719 194.163040,211.911087 
	C193.059418,204.988297 187.962677,200.124664 181.768875,199.384628 
	C174.984772,198.574066 169.038055,201.839172 166.355164,207.847656 
	C163.572540,214.079483 165.201645,220.539673 171.463028,226.147156 
M31.405983,240.601883 
	C32.864391,240.286911 34.363239,240.095856 35.774162,239.635391 
	C41.614307,237.729385 44.802219,233.491592 45.562443,227.564423 
	C46.381874,221.175598 43.551777,215.573975 38.226952,212.892380 
	C32.723080,210.120682 27.266140,210.383682 22.216146,214.105927 
	C17.838486,217.332611 15.387888,223.836700 16.778263,228.752274 
	C18.747232,235.713425 23.348864,239.748993 31.405983,240.601883 
M142.433182,439.961823 
	C141.222794,439.432007 140.053268,438.761169 138.795044,438.396332 
	C132.781464,436.652466 126.316788,439.197266 122.808998,444.603271 
	C119.274452,450.050507 119.641838,456.608887 123.769135,461.742676 
	C127.713264,466.648651 134.142349,468.619873 139.775589,466.539215 
	C144.989090,464.613617 148.483719,460.907501 149.474350,455.459503 
	C150.614471,449.189423 148.328323,444.057434 142.433182,439.961823 
M253.854202,111.209816 
	C253.152237,118.280289 256.945740,124.587250 263.357239,127.009254 
	C269.293457,129.251724 276.293610,127.263596 279.900604,122.182617 
	C283.626831,116.933708 283.900574,111.328857 280.920776,105.706955 
	C278.285797,100.735596 271.962799,97.524925 266.591888,98.521614 
	C259.928192,99.758209 255.553818,103.667953 253.854202,111.209816 
z"/>
</svg>