<svg version="1.1" id="Layer_1" xmlns="http://www.w3.org/2000/svg" xmlns:xlink="http://www.w3.org/1999/xlink" x="0px" y="0px"
	 width="100%" viewBox="0 0 368 400" enable-background="new 0 0 368 400" xml:space="preserve">
<path fill="#000000" opacity="1.000000" stroke="none" 
	d="
M235.691498,249.686584 
	C242.291702,244.577789 248.909714,240.033997 254.906860,234.781357 
	C272.985870,218.946701 283.891449,199.019135 287.795532,175.278976 
	C288.037598,173.807251 288.321014,172.301041 288.880096,170.931229 
	C290.075317,168.002640 292.304962,166.292038 295.538818,166.925247 
	C298.713287,167.546844 300.390198,169.794128 300.309875,173.044052 
	C300.164764,178.912628 298.686981,184.575256 297.081909,190.158997 
	C289.314453,217.180664 273.512848,238.429260 250.174652,253.937302 
	C240.226028,260.548096 235.277161,269.258362 235.942917,281.206757 
	C236.137314,284.695557 236.086777,288.209564 235.938568,291.703156 
	C235.715607,296.958435 236.492264,301.011475 241.109634,305.116882 
	C248.103134,311.334961 246.288315,320.382355 244.546417,328.577423 
	C243.974823,331.266632 243.606674,333.476379 244.566345,336.206604 
	C246.602417,341.999237 246.291992,348.077759 244.838028,353.946838 
	C243.419174,359.674072 237.630936,363.989807 231.502213,364.293030 
	C227.344879,364.498749 223.164642,364.556885 219.008118,364.374390 
	C214.870117,364.192780 212.662811,365.429565 213.299133,370.031769 
	C213.593002,372.157166 213.388550,374.358948 213.331528,376.524048 
	C213.121094,384.516937 207.807114,390.118805 199.889694,390.306641 
	C191.894882,390.496338 183.888458,390.498505 175.893799,390.305573 
	C168.563751,390.128693 163.141022,384.588226 162.686569,377.256226 
	C162.655670,376.757751 162.668671,376.256592 162.659439,375.756744 
	C162.449677,364.407104 162.449631,364.410400 151.276138,364.394196 
	C148.943253,364.390839 146.601608,364.475372 144.279205,364.308197 
	C137.383926,363.811798 131.875229,359.023376 130.823349,352.292358 
	C130.075623,347.507629 129.870941,342.492767 131.034897,337.875519 
	C132.013824,333.992218 131.671188,330.708496 131.016678,326.863464 
	C129.435287,317.573303 128.584534,308.026215 138.417313,301.890900 
	C140.067856,300.860992 139.947830,299.042725 139.954254,297.377777 
	C139.978668,291.045044 139.886459,284.710632 140.001175,278.379791 
	C140.190689,267.919800 135.616196,260.224609 126.874084,254.694046 
	C114.914536,247.128052 104.906822,237.476059 96.409462,226.154526 
	C64.202415,183.243164 68.295265,120.036919 105.547798,81.460060 
	C123.544983,62.823082 145.072510,51.281315 170.552765,46.987957 
	C172.020996,46.740559 173.541763,46.629040 175.027237,46.695728 
	C178.289764,46.842213 180.377090,48.669174 180.873779,51.828003 
	C181.350159,54.857533 179.560150,56.868053 176.985535,58.160484 
	C174.383484,59.466694 171.428329,59.111397 168.682953,59.763706 
	C125.614616,69.996918 97.865265,96.553909 88.927940,139.755447 
	C80.331284,181.310226 97.302094,220.362747 132.319672,243.418060 
	C145.706116,252.231598 152.826141,263.902649 152.332794,280.053680 
	C152.195480,284.548981 152.623383,289.077942 152.245590,293.545227 
	C151.822968,298.542999 153.497406,300.223633 158.647476,300.147095 
	C177.142029,299.872070 195.643234,300.045258 214.141922,300.047638 
	C223.655396,300.048859 223.547760,300.045837 223.694550,290.697937 
	C223.796280,284.218689 223.236816,277.738708 224.289230,271.252411 
	C225.653107,262.846588 229.568222,255.914993 235.691498,249.686584 
M160.506012,338.370209 
	C156.682037,338.370605 152.857574,338.331360 149.034225,338.380585 
	C143.165985,338.456177 142.358490,339.288483 142.368027,345.026337 
	C142.378510,351.337433 142.905945,351.939392 149.127335,351.943817 
	C175.063782,351.962341 201.000275,351.957642 226.936691,351.921356 
	C232.973953,351.912903 233.694855,351.077667 233.644897,344.836823 
	C233.599136,339.120087 232.865723,338.376617 226.843750,338.371582 
	C205.063782,338.353363 183.283798,338.368408 160.506012,338.370209 
M226.163269,312.336334 
	C200.501678,312.341278 174.840088,312.329285 149.178528,312.363831 
	C143.236710,312.371826 142.388748,313.261597 142.368073,318.908752 
	C142.345276,325.137299 143.039291,325.944794 149.127731,325.955780 
	C174.955872,326.002441 200.784149,325.971558 226.612228,326.033783 
	C230.736649,326.043732 233.812363,325.467499 233.721115,320.155670 
	C233.607437,313.537628 233.172318,312.747803 226.163269,312.336334 
M200.283676,365.416656 
	C192.660309,363.246429 184.900284,364.763519 177.204208,364.604431 
	C175.502884,364.569275 175.304276,366.022003 175.113541,367.436035 
	C173.778900,377.330658 174.881378,378.604645 184.938034,378.584808 
	C186.428757,378.581848 187.919510,378.584686 189.410217,378.579926 
	C201.599182,378.541168 201.599182,378.540802 200.283676,365.416656 
z"/>
<path fill="#000000" opacity="1.000000" stroke="none" 
	d="
M248.593567,215.593506 
	C245.383957,218.761337 242.545029,221.825256 239.441727,224.592743 
	C235.189484,228.384888 231.288071,228.337906 226.968521,224.552170 
	C224.466293,222.359161 221.953964,220.106079 219.849670,217.548111 
	C216.983994,214.064575 214.209854,213.619263 209.977173,215.478806 
	C205.949234,217.248398 206.339264,220.074783 206.344818,223.208069 
	C206.350418,226.374405 206.425217,229.543991 206.310684,232.706406 
	C206.101196,238.491165 203.194626,241.788589 197.408859,242.068130 
	C191.092361,242.373322 184.736053,242.374771 178.421402,242.044327 
	C172.732941,241.746658 169.845261,238.343384 169.680313,232.530594 
	C169.581085,229.033600 169.439087,225.515305 169.707031,222.036682 
	C169.981201,218.477264 168.526031,216.759308 165.318176,215.267853 
	C161.685638,213.578949 159.279373,213.928299 156.722763,216.987976 
	C154.383789,219.787231 151.664459,222.305084 148.904236,224.707382 
	C144.829895,228.253357 140.769852,228.452072 136.765137,224.825104 
	C131.835312,220.360321 127.110466,215.624283 122.690300,210.655609 
	C118.998238,206.505356 119.219002,202.840256 122.943611,198.586334 
	C125.683083,195.457535 128.644592,192.500412 131.708054,189.685425 
	C134.041168,187.541580 133.649902,185.520004 132.479691,182.996155 
	C131.339844,180.537781 130.758881,178.010193 127.120903,178.231049 
	C123.137077,178.472916 119.116798,178.418411 115.127983,178.203674 
	C108.952522,177.871185 105.757423,174.490540 105.652420,168.285278 
	C105.553749,162.454269 105.549202,156.618561 105.660843,150.787949 
	C105.777756,144.681778 108.166008,141.885666 114.245827,141.240738 
	C118.370895,140.803146 122.572754,140.818832 126.725098,140.993225 
	C130.143219,141.136780 131.223984,139.166489 132.343597,136.491013 
	C133.464569,133.812271 134.105911,131.631302 131.583115,129.339325 
	C128.627640,126.654243 125.816216,123.788826 123.140366,120.822952 
	C119.218658,116.476158 118.968735,112.649406 122.785255,108.373451 
	C127.105453,103.533203 131.676514,98.877579 136.483994,94.523109 
	C140.882996,90.538605 144.956604,90.783432 149.402817,94.807220 
	C152.240906,97.375679 154.912186,100.138596 157.540176,102.925667 
	C159.430374,104.930283 161.242447,106.040230 164.030609,104.401657 
	C166.643845,102.865875 170.179077,102.590935 169.727448,98.066978 
	C169.348633,94.272255 169.680038,90.408745 169.655960,86.575958 
	C169.624283,81.533203 171.861313,78.144394 176.979477,77.461555 
	C184.421051,76.468735 191.923157,76.361908 199.357010,77.558983 
	C203.948242,78.298325 206.242523,81.316864 206.323105,85.947937 
	C206.381073,89.280029 206.343506,92.613785 206.348663,95.946793 
	C206.358292,102.170036 207.523163,103.481033 213.619568,105.088524 
	C215.702332,105.637711 216.754456,104.554138 217.930923,103.398689 
	C220.784073,100.596458 223.512894,97.661606 226.453033,94.955338 
	C231.065811,90.709488 235.231750,90.590012 239.715973,94.761581 
	C244.227631,98.958664 248.604523,103.316315 252.825180,107.805977 
	C256.828033,112.063942 256.832489,116.366165 252.976059,120.720276 
	C250.549591,123.459877 247.987640,126.121742 245.212631,128.498795 
	C242.288971,131.003174 242.394775,133.382660 243.717621,136.813782 
	C245.107330,140.418381 247.290680,141.065964 250.599625,140.983307 
	C254.420654,140.887833 258.288177,140.860092 262.068176,141.336792 
	C267.766907,142.055435 270.263794,145.024139 270.358429,150.693970 
	C270.455750,156.525101 270.449402,162.360306 270.357727,168.191650 
	C270.256378,174.637939 267.038330,177.902481 260.481689,178.232834 
	C257.489288,178.383591 254.482117,178.332016 251.484329,178.260376 
	C248.073120,178.178864 245.352036,178.184906 243.609131,182.400009 
	C241.857742,186.635605 243.204849,188.891968 246.076447,191.384354 
	C247.959015,193.018311 249.644806,194.883163 251.380051,196.681931 
	C257.336975,202.856979 257.319183,206.563980 251.319611,212.885803 
	C250.517578,213.730927 249.671875,214.534607 248.593567,215.593506 
M181.383560,104.284966 
	C181.680862,108.237244 181.002167,111.734055 176.600235,113.030228 
	C172.105072,114.353867 167.851669,116.198746 163.689056,118.320457 
	C159.992920,120.204384 156.627914,119.723602 153.725052,116.616333 
	C152.475388,115.278671 151.143784,114.017433 149.846054,112.724854 
	C142.145386,105.054710 142.142380,105.052879 135.166031,113.689987 
	C134.987488,113.911034 135.032700,114.312805 134.973557,114.630295 
	C134.622284,114.980476 134.271011,115.330666 133.919739,115.680847 
	C137.768784,119.097031 141.659622,122.467628 145.453018,125.944511 
	C148.249283,128.507462 148.877853,131.531845 146.937973,134.943710 
	C144.708511,138.864944 142.960464,142.977859 141.754135,147.342346 
	C140.572693,151.616837 137.673874,153.545898 133.189041,153.348541 
	C129.532425,153.187653 125.855156,153.472595 122.200897,153.286987 
	C117.741417,153.060532 117.911423,156.053726 118.112488,158.938232 
	C118.309891,161.770187 116.688560,165.808929 122.059113,165.739441 
	C125.888741,165.689865 129.720734,165.796860 133.549637,165.725143 
	C137.821365,165.645142 140.448227,167.655685 141.635681,171.702164 
	C142.857544,175.865921 144.360245,179.932419 146.576782,183.670319 
	C148.901703,187.590988 148.363403,190.908020 144.964310,193.884583 
	C141.244385,197.142090 137.570236,200.451889 134.085297,203.552780 
	C141.774918,214.330566 141.955139,214.286682 149.836853,206.581696 
	C156.262085,200.300537 155.949463,198.000519 168.611435,202.780151 
	C179.405731,206.854767 182.680618,212.174438 181.527481,222.744492 
	C180.769608,229.691406 181.406387,229.760910 188.588974,229.707733 
	C189.255096,229.702805 189.923904,229.655685 190.586868,229.698929 
	C193.640244,229.898071 194.718430,228.367645 194.636749,225.458160 
	C194.524628,221.464569 194.761078,217.458984 194.587051,213.469940 
	C194.414520,209.515076 196.206543,207.107513 199.844498,206.035339 
	C204.179932,204.757553 208.282608,202.961502 212.253632,200.842209 
	C216.014725,198.834930 219.279053,199.461533 222.171143,202.531845 
	C223.426559,203.864609 224.747162,205.136261 226.046814,206.426971 
	C233.882889,214.209091 233.934311,214.207016 240.802017,205.426620 
	C240.982574,205.195801 240.954651,204.801926 241.023956,204.484085 
	C241.332092,204.175110 241.640213,203.866135 241.948349,203.557159 
	C238.112762,200.123901 234.230774,196.740677 230.456924,193.240829 
	C227.653885,190.641296 227.233307,187.649628 229.155136,184.225815 
	C231.357681,180.301834 233.135223,176.174240 234.335907,171.814316 
	C235.523361,167.502487 238.395493,165.585938 242.849533,165.727127 
	C246.509567,165.843124 250.180832,165.628235 253.839172,165.768097 
	C258.732147,165.955154 257.967804,162.473648 257.923615,159.585876 
	C257.880707,156.779648 258.930054,153.158951 253.951523,153.315964 
	C250.291565,153.431396 246.613312,153.139557 242.963470,153.361862 
	C237.913116,153.669449 235.109329,151.279022 234.027847,146.576630 
	C233.196976,142.963913 231.839523,139.529785 229.886139,136.448303 
	C226.788773,131.562164 227.956879,127.892281 232.030624,124.215897 
	C235.418808,121.158218 239.032089,118.179108 241.829376,113.376175 
	C240.080536,111.937248 238.143417,110.785133 236.802139,109.145576 
	C234.214508,105.982567 232.101181,106.303368 229.575317,109.188438 
	C227.276596,111.814110 224.617569,114.120552 222.212509,116.657890 
	C219.263504,119.769112 215.889633,120.182999 212.240906,118.262100 
	C208.246567,116.159256 204.127701,114.422737 199.789505,113.180832 
	C196.313049,112.185608 194.541885,109.916039 194.598312,106.215782 
	C194.661789,102.053337 194.635437,97.888855 194.592789,93.725822 
	C194.577713,92.256073 194.831818,90.290665 193.099884,89.838547 
	C189.713303,88.954483 186.015320,88.576363 182.822388,89.959755 
	C180.283142,91.059921 181.592056,94.135422 181.435318,96.351898 
	C181.271240,98.672150 181.390167,101.012413 181.383560,104.284966 
z"/>
<path fill="#000000" opacity="1.000000" stroke="none" 
	d="
M242.308441,73.704208 
	C229.973373,66.036865 217.030380,61.051018 202.949463,59.145252 
	C199.697144,58.705074 196.692459,57.777042 195.484558,54.230778 
	C193.825867,49.361004 198.055176,45.763344 204.537323,46.825306 
	C214.749802,48.498405 224.761383,50.985012 234.171997,55.439575 
	C271.035217,72.888985 292.932556,101.789490 300.195953,141.857910 
	C300.403534,143.003265 300.535339,144.167938 300.616364,145.329620 
	C300.855377,148.756088 299.465851,151.306183 296.066284,152.111389 
	C292.372375,152.986328 289.890167,151.064224 288.766724,147.656662 
	C287.255249,143.072037 287.192108,138.191223 285.926544,133.496292 
	C279.070862,108.063011 264.659363,88.237907 242.308441,73.704208 
z"/>
<path fill="#000000" opacity="1.000000" stroke="none" 
	d="
M80.848320,258.045776 
	C84.284470,254.598846 87.385910,251.342224 90.638023,248.243744 
	C94.754623,244.321594 97.641602,243.983185 100.619141,246.836517 
	C103.555786,249.650665 103.102074,253.227371 99.187050,257.238495 
	C96.050491,260.452118 92.843727,263.597900 89.637672,266.742737 
	C86.743843,269.581268 83.631981,271.901031 79.615532,268.753937 
	C76.633347,266.417175 77.078835,262.488312 80.848320,258.045776 
z"/>
<path fill="#000000" opacity="1.000000" stroke="none" 
	d="
M194.260437,23.898769 
	C194.174088,26.865559 194.482697,29.369669 193.682129,31.816366 
	C192.805099,34.496761 191.010178,36.098877 188.232132,36.175259 
	C185.224899,36.257942 182.869705,34.686562 182.391037,31.737053 
	C181.240646,24.648560 181.276138,17.465347 182.344940,10.378069 
	C182.815643,7.256802 185.281265,5.552644 188.567551,5.801004 
	C191.948227,6.056497 193.655136,8.458075 193.967239,11.441606 
	C194.381363,15.400723 194.190933,19.423082 194.260437,23.898769 
z"/>
<path fill="#000000" opacity="1.000000" stroke="none" 
	d="
M36.369888,154.940277 
	C44.528191,152.649765 52.466354,153.643997 60.340240,154.072754 
	C63.087513,154.222351 64.292412,156.716919 64.344368,159.552155 
	C64.396858,162.416611 63.217690,164.628571 60.450382,165.141388 
	C53.076267,166.507965 45.575645,166.672577 38.257153,165.083939 
	C33.870106,164.131622 33.117546,159.687286 36.369888,154.940277 
z"/>
<path fill="#000000" opacity="1.000000" stroke="none" 
	d="
M279.030579,74.144226 
	C272.983459,71.504555 271.825470,67.647568 275.772034,63.302742 
	C279.671387,59.009895 283.879974,54.987347 288.092529,50.993473 
	C290.675171,48.544937 293.725616,47.884380 296.527191,50.587746 
	C299.014526,52.987846 299.369537,56.291321 297.041260,58.655727 
	C291.553589,64.228600 287.425171,71.432785 279.030579,74.144226 
z"/>
<path fill="#000000" opacity="1.000000" stroke="none" 
	d="
M315.240845,165.095566 
	C311.572906,163.244568 311.083923,160.368774 312.050507,157.272354 
	C312.992462,154.254776 315.636597,153.659393 318.493958,153.675903 
	C323.987030,153.707642 329.480835,153.731598 334.973480,153.674011 
	C338.917328,153.632660 341.638123,155.475418 341.883301,159.331696 
	C342.137482,163.328476 339.373322,165.197769 335.539642,165.512329 
	C328.897003,166.057373 322.258484,166.364853 315.240845,165.095566 
z"/>
<path fill="#000000" opacity="1.000000" stroke="none" 
	d="
M96.137177,74.125687 
	C88.398300,70.465866 83.605103,64.000984 78.503517,58.003342 
	C76.587723,55.751053 77.260155,52.567398 79.777718,50.427910 
	C82.127716,48.430809 84.866714,48.309303 87.038208,50.337444 
	C91.880913,54.860455 96.711311,59.450180 101.044495,64.448151 
	C104.470993,68.400345 102.395943,72.388489 96.137177,74.125687 
z"/>
<path fill="#000000" opacity="1.000000" stroke="none" 
	d="
M281.431213,261.561768 
	C279.121979,259.170349 276.874023,257.169403 275.036438,254.844131 
	C272.925110,252.172409 272.996216,249.239365 275.522644,246.795898 
	C278.078522,244.323898 281.040405,244.367905 283.538910,246.732666 
	C288.107300,251.056458 292.581604,255.499527 296.819977,260.143951 
	C299.053772,262.591736 299.224030,265.775604 296.837189,268.265900 
	C294.289734,270.923767 291.173279,270.886597 288.398743,268.428436 
	C286.047699,266.345459 283.907379,264.024536 281.431213,261.561768 
z"/>
<path fill="#000000" opacity="1.000000" stroke="none" 
	d="
M171.061493,185.116394 
	C160.356537,177.309280 155.998016,166.917587 157.973251,154.388535 
	C159.766861,143.011444 166.602142,135.041763 177.421432,130.947830 
	C190.531494,125.987083 205.237396,130.800842 213.213013,142.332932 
	C220.999725,153.591873 220.024490,169.407120 210.898361,179.869324 
	C201.994247,190.076965 186.840652,193.035767 174.449112,186.973831 
	C173.403320,186.462219 172.397903,185.868057 171.061493,185.116394 
M193.245789,176.999786 
	C194.168350,176.631317 195.126480,176.332596 196.007858,175.883362 
	C203.048065,172.295044 207.516190,164.315796 206.282516,157.594131 
	C204.605804,148.458466 198.281616,142.232208 189.815140,141.381729 
	C181.734985,140.570053 174.590118,145.007462 171.208679,152.735199 
	C168.397064,159.160675 169.332962,165.149689 173.473038,170.503433 
	C178.270874,176.707748 184.745621,178.950928 193.245789,176.999786 
z"/>
</svg>