<svg version="1.1" id="Layer_1" xmlns="http://www.w3.org/2000/svg" xmlns:xlink="http://www.w3.org/1999/xlink" x="0px" y="0px"
	 width="100%" viewBox="0 0 512 512" enable-background="new 0 0 512 512" xml:space="preserve">
<path fill="#000000" opacity="1.000000" stroke="none" 
	d="
M297.613708,46.287365 
	C319.536041,55.703960 341.063232,65.080460 362.730957,74.120232 
	C368.597961,76.567947 371.289764,80.227737 371.263367,86.605629 
	C371.081390,130.594421 371.055603,174.583878 370.990234,218.573120 
	C370.989502,219.060837 371.130676,219.548752 371.207031,220.045822 
	C372.955261,221.555801 375.046326,220.973434 376.973846,220.981171 
	C393.803497,221.048569 410.634094,221.137680 427.463013,221.019928 
	C433.134827,220.980255 437.636444,222.661209 441.661713,226.875641 
	C450.865906,236.512390 460.391541,245.845779 469.909058,255.177505 
	C472.966278,258.175049 474.370605,261.478180 474.366699,265.809937 
	C474.297424,342.127594 474.331421,418.445404 474.323364,494.763153 
	C474.322479,503.352020 471.443451,506.286499 463.015778,506.288086 
	C395.862823,506.300842 328.709869,506.298309 261.556915,506.277161 
	C253.619843,506.274658 250.688889,503.345551 250.682510,495.431427 
	C250.655533,461.938263 250.673233,428.445099 250.648087,394.951935 
	C250.646637,393.014893 250.995758,391.003448 249.948349,388.673431 
	C245.735413,390.090881 241.613922,391.281067 237.640533,392.847015 
	C215.739014,401.478943 194.120743,400.626740 172.041946,392.715515 
	C104.742317,368.600769 62.212101,322.108826 44.385681,253.009399 
	C41.055923,240.102478 39.585587,226.879654 39.615498,213.485306 
	C39.709267,171.494095 39.778133,129.501724 39.521774,87.511864 
	C39.478966,80.500954 41.779358,76.650993 48.348270,73.865135 
	C98.940491,52.409199 149.407013,30.656540 199.879181,8.918493 
	C204.108139,7.097113 207.858719,7.771144 211.870544,9.500751 
	C240.313446,21.763216 268.799286,33.926075 297.613708,46.287365 
M267.275146,353.499969 
	C267.279755,396.642273 267.281616,439.784576 267.291870,482.926880 
	C267.293457,489.664551 267.311096,489.681519 274.225403,489.682343 
	C333.192627,489.689606 392.159821,489.691193 451.127045,489.691406 
	C457.674835,489.691437 457.696442,489.682587 457.697327,483.101410 
	C457.704041,433.628906 457.701294,384.156433 457.702148,334.683929 
	C457.702484,315.361359 457.612396,296.037964 457.779663,276.716827 
	C457.815033,272.634216 456.580444,271.040985 452.389069,271.242493 
	C446.572388,271.522095 440.732056,271.344971 434.902252,271.306335 
	C427.346497,271.256226 424.340118,268.409058 424.056885,260.786804 
	C423.871368,255.795700 423.961304,250.793671 423.962036,245.796539 
	C423.963196,237.941711 423.975372,237.929001 415.885895,237.928909 
	C368.578918,237.928299 321.271912,237.937637 273.964935,237.933868 
	C267.316986,237.933334 267.285889,237.918900 267.284180,244.559967 
	C267.274841,280.539948 267.276611,316.519958 267.275146,353.499969 
M168.227234,327.228607 
	C177.945129,332.480835 188.208420,336.304840 198.866592,339.172180 
	C202.812881,340.233826 206.631393,340.441010 210.598816,339.402924 
	C222.910065,336.181610 234.605835,331.538055 245.710403,325.261169 
	C249.385910,323.183563 250.772415,320.796448 250.747086,316.580994 
	C250.580856,288.919983 250.664612,261.257477 250.668411,233.595459 
	C250.669785,223.627136 253.035797,221.135040 262.942047,221.071747 
	C276.939209,220.982315 290.937195,221.033218 304.934753,220.995209 
	C311.643951,220.976990 311.796295,220.947296 311.812653,214.452576 
	C311.891113,183.291656 311.825470,152.130264 311.972961,120.969818 
	C311.990570,117.248001 310.225220,115.705574 307.178528,114.407204 
	C274.547821,100.501366 241.944794,86.530396 209.358124,72.521553 
	C206.753418,71.401802 204.433731,71.200218 201.726501,72.366570 
	C168.999207,86.466370 136.260208,100.540237 103.438515,114.418121 
	C99.382820,116.132980 98.205078,118.423615 98.230812,122.682236 
	C98.411041,152.509476 98.288986,182.338364 98.346519,212.166580 
	C98.371727,225.236481 100.476578,238.042648 104.583122,250.417099 
	C115.720322,283.977356 136.857681,309.401337 168.227234,327.228607 
M56.339352,180.499908 
	C56.303806,201.297028 54.988510,222.285370 59.605522,242.698364 
	C75.562065,313.246307 118.396637,358.994324 187.900436,379.404114 
	C194.374512,381.305237 201.096603,383.639435 207.984726,382.498047 
	C221.480637,380.261658 234.601074,376.529785 247.206940,371.123779 
	C248.745224,370.464111 250.528610,369.907959 250.544418,367.861145 
	C250.608109,359.624756 250.570801,351.387573 250.570801,343.288635 
	C248.193359,342.841125 246.979813,343.908142 245.699051,344.565979 
	C237.221191,348.920959 228.351318,352.249573 219.171692,354.746765 
	C211.946594,356.712280 204.868332,358.253479 197.123489,356.370880 
	C134.288879,341.097412 87.133301,288.155945 82.025261,224.545532 
	C79.038475,187.350998 81.279060,149.941238 81.041443,112.629204 
	C81.008316,107.427338 83.650513,104.161972 88.592026,102.065178 
	C125.688652,86.324295 162.715714,70.419235 199.740555,54.509727 
	C203.310287,52.975819 206.571640,52.782047 210.274170,54.376419 
	C246.977814,70.181633 283.690552,85.968338 320.526489,101.461174 
	C327.055145,104.207039 329.474792,108.170853 329.419098,115.168236 
	C329.153839,148.491089 329.378296,181.817642 329.178131,215.141403 
	C329.149841,219.846405 330.663177,221.423752 335.179779,221.076004 
	C338.824249,220.795425 342.506989,221.017441 346.172699,221.006195 
	C353.653870,220.983261 353.708893,220.980423 353.713837,213.698807 
	C353.740906,173.875534 353.682312,134.052048 353.833282,94.229317 
	C353.848450,90.220749 352.402069,88.402939 348.815460,86.875229 
	C302.549164,67.168243 256.332428,47.344337 210.168884,27.397797 
	C206.622391,25.865410 203.734039,26.038479 200.320389,27.506742 
	C153.825363,47.505116 107.302872,67.439995 60.731022,87.258652 
	C57.176758,88.771172 56.266533,90.921822 56.281002,94.521584 
	C56.394852,122.847305 56.341702,151.173706 56.339352,180.499908 
z"/>
<path fill="#000000" opacity="1.000000" stroke="none" 
	d="
M305.205200,329.337585 
	C295.673950,329.051270 290.997162,324.462250 290.853882,315.380341 
	C290.717499,306.735535 290.716461,298.085236 290.851166,289.440430 
	C290.999786,279.902802 295.895691,274.977844 305.376953,274.830841 
	C314.021759,274.696869 322.671997,274.702484 331.316895,274.837494 
	C340.733765,274.984528 345.309723,279.724091 345.341278,289.119812 
	C345.371979,298.265533 345.403076,307.411926 345.327148,316.557129 
	C345.261017,324.523438 340.571716,329.237152 332.614838,329.313660 
	C323.636078,329.399994 314.655945,329.337006 305.205200,329.337585 
M325.088684,312.766632 
	C327.539307,312.880890 328.803040,311.835358 328.770538,309.257874 
	C328.709747,304.435333 328.740356,299.611542 328.745361,294.788269 
	C328.747650,292.592285 327.840515,291.369934 325.477356,291.387878 
	C320.654236,291.424530 315.830353,291.402130 311.007111,291.361023 
	C308.535797,291.339935 307.333893,292.448914 307.356171,294.969543 
	C307.397308,299.626373 307.440735,304.285767 307.329895,308.940430 
	C307.263397,311.733643 308.494446,312.848785 311.204193,312.804016 
	C315.527496,312.732574 319.852844,312.782501 325.088684,312.766632 
z"/>
<path fill="#000000" opacity="1.000000" stroke="none" 
	d="
M339.371887,453.824158 
	C336.950989,455.337097 334.622711,455.410248 332.282074,455.411255 
	C322.968414,455.415222 313.654205,455.477051 304.341217,455.398987 
	C296.145538,455.330322 291.186859,450.799622 290.936432,442.614807 
	C290.646667,433.143982 290.622162,423.649353 290.940613,414.180481 
	C291.210266,406.162445 295.784637,401.381073 303.761871,401.049927 
	C313.389343,400.650269 323.065643,400.607452 332.685852,401.096802 
	C341.283569,401.534180 345.313477,406.467102 345.342133,415.198303 
	C345.371643,424.179260 345.261993,433.161530 345.381287,442.141022 
	C345.446014,447.014374 343.884460,450.912720 339.371887,453.824158 
M307.348724,431.375916 
	C307.370270,438.906921 307.370270,438.906799 315.047607,438.903229 
	C318.210724,438.901764 321.376404,438.821808 324.536255,438.923035 
	C327.408234,439.015015 328.886871,437.972443 328.806824,434.889404 
	C328.690247,430.397461 328.680878,425.897675 328.805115,421.406219 
	C328.890442,418.321198 327.466278,417.203430 324.560638,417.410950 
	C323.235596,417.505554 321.898132,417.424896 320.566284,417.424622 
	C307.348145,417.421875 307.348145,417.421967 307.348724,431.375916 
z"/>
<path fill="#000000" opacity="1.000000" stroke="none" 
	d="
M300.675323,392.157349 
	C293.798126,390.036743 290.993927,385.275482 290.873962,378.876129 
	C290.705719,369.901978 290.673157,360.918488 290.882385,351.946014 
	C291.093109,342.907837 295.923065,338.100220 304.915527,337.919159 
	C313.722870,337.741821 322.540131,337.750702 331.347107,337.946198 
	C340.792236,338.155823 345.316803,342.919434 345.342957,352.280121 
	C345.368530,361.423645 345.401855,370.567780 345.328308,379.710815 
	C345.265839,387.475250 340.684052,392.247284 333.016266,392.318542 
	C322.379181,392.417328 311.739868,392.280121 300.675323,392.157349 
M319.452515,375.829437 
	C329.873627,375.731110 328.685394,376.781921 328.792938,366.428558 
	C328.796387,366.096283 328.793579,365.763916 328.793549,365.431610 
	C328.792023,354.407806 328.791901,354.376495 317.678741,354.415253 
	C305.870392,354.456451 307.338684,353.185608 307.390381,364.811920 
	C307.446167,377.359436 305.335846,375.685730 319.452515,375.829437 
z"/>
<path fill="#000000" opacity="1.000000" stroke="none" 
	d="
M432.015930,361.088379 
	C429.800354,363.780334 427.184021,364.379364 424.202515,364.372711 
	C405.751617,364.331390 387.300507,364.378082 368.849487,364.362732 
	C364.182434,364.358826 360.613739,361.409027 360.083008,357.261230 
	C359.561676,353.186951 362.457672,349.253632 366.910522,348.168488 
	C368.183655,347.858246 369.541321,347.789581 370.860352,347.788635 
	C388.314117,347.775818 405.768341,347.723083 423.221466,347.836121 
	C432.013794,347.893036 435.458801,352.987244 432.015930,361.088379 
z"/>
<path fill="#000000" opacity="1.000000" stroke="none" 
	d="
M414.981567,284.786713 
	C418.470367,284.798462 421.468872,284.694946 424.454498,284.846344 
	C430.061096,285.130585 433.716003,288.542877 433.706848,293.296173 
	C433.697876,297.958221 429.911713,301.280273 424.206787,301.301392 
	C405.917847,301.369049 387.628387,301.371796 369.339355,301.323730 
	C364.049103,301.309845 360.335938,298.064209 360.059021,293.526459 
	C359.774963,288.871613 363.481720,285.088074 369.097168,284.865692 
	C375.405975,284.615875 381.731018,284.765045 388.049011,284.762939 
	C396.861145,284.759979 405.673309,284.777649 414.981567,284.786713 
z"/>
<path fill="#000000" opacity="1.000000" stroke="none" 
	d="
M371.196594,427.378113 
	C369.559906,427.349335 368.380768,427.431152 367.235962,427.269714 
	C363.033813,426.677063 360.623291,424.027802 360.211212,420.002441 
	C359.791077,415.898285 361.903870,412.922455 365.849060,411.657410 
	C367.704712,411.062408 369.764679,410.899841 371.733154,410.893677 
	C388.363129,410.841461 404.993347,410.866486 421.623505,410.883606 
	C422.951233,410.884979 424.295593,410.888062 425.603577,411.082794 
	C431.147064,411.908203 433.919556,415.096893 433.507202,420.061523 
	C433.120605,424.715546 430.081696,427.311371 424.551422,427.332550 
	C406.924469,427.400085 389.297119,427.369690 371.196594,427.378113 
z"/>
<path fill="#000000" opacity="1.000000" stroke="none" 
	d="
M370.366699,428.840759 
	C381.482910,428.832611 392.139709,428.867584 402.795990,428.808044 
	C405.729919,428.791656 408.455841,429.278900 410.726379,431.212952 
	C413.393982,433.485260 414.212738,436.421143 413.316040,439.773285 
	C412.449524,443.012665 410.216003,444.965942 406.937408,445.259979 
	C393.471527,446.467529 379.989594,445.964081 366.526367,445.200012 
	C362.890167,444.993652 361.110138,442.178589 360.325500,438.889862 
	C359.490051,435.388123 361.065308,432.718597 363.788330,430.697815 
	C365.568909,429.376404 367.684143,428.860260 370.366699,428.840759 
z"/>
<path fill="#000000" opacity="1.000000" stroke="none" 
	d="
M401.778931,365.873291 
	C404.422882,365.856262 406.583893,365.932617 408.630066,366.798218 
	C412.344940,368.369812 413.957153,371.347748 413.573578,375.173889 
	C413.185150,379.047760 410.861664,382.123627 406.937286,382.160736 
	C393.626587,382.286621 380.307587,383.321899 367.002716,382.300201 
	C362.996735,381.992554 360.731934,379.184448 360.123260,375.433167 
	C359.529083,371.771332 361.405029,369.012482 364.537354,367.174988 
	C366.623718,365.951111 368.971436,365.896820 371.324890,365.898956 
	C381.319672,365.908020 391.314484,365.885223 401.778931,365.873291 
z"/>
<path fill="#000000" opacity="1.000000" stroke="none" 
	d="
M396.974670,319.391937 
	C387.493622,319.386047 378.507690,319.428833 369.522675,319.355469 
	C363.722290,319.308105 360.126862,316.196350 360.027985,311.358582 
	C359.936249,306.872620 363.987335,302.868073 369.334503,302.801758 
	C381.146576,302.655273 392.964386,302.662262 404.775299,302.868469 
	C410.216461,302.963440 413.833557,306.860657 413.645386,311.671204 
	C413.459564,316.422272 410.152313,319.216919 404.458649,319.368439 
	C402.130615,319.430389 399.799744,319.386902 396.974670,319.391937 
z"/>
<path fill="#000000" opacity="1.000000" stroke="none" 
	d="
M156.155518,246.844589 
	C147.554688,238.217163 139.066467,229.971298 130.890747,221.426468 
	C123.718567,213.930450 121.634338,204.896027 125.026009,195.084106 
	C128.443054,185.198807 135.901657,179.648071 146.121506,178.284195 
	C154.358841,177.184906 161.514557,180.078430 167.432190,185.911514 
	C172.771133,191.174210 178.232773,196.325821 183.332245,201.812729 
	C186.115829,204.807785 187.911331,204.377609 190.558899,201.672714 
	C207.571976,184.291290 224.682068,167.004242 241.836273,149.761780 
	C251.030716,140.520004 261.761169,138.308136 272.321655,143.225327 
	C288.443237,150.731888 291.897583,171.476166 279.003296,184.692001 
	C262.599762,201.504593 245.979202,218.105362 229.456467,234.801682 
	C221.957993,242.378937 214.540070,250.037415 206.961380,257.533417 
	C193.955368,270.397583 179.578384,270.279236 166.660828,257.337555 
	C163.247665,253.917999 159.823212,250.509689 156.155518,246.844589 
M261.494568,158.168900 
	C257.714630,157.958282 255.415848,160.424118 253.060150,162.812347 
	C233.776047,182.362701 214.513321,201.934296 195.182388,221.438263 
	C188.949875,227.726578 184.919083,227.659714 178.663849,221.439880 
	C171.109421,213.928238 163.634354,206.336304 156.039734,198.865738 
	C151.647812,194.545563 146.789230,194.175140 143.298584,197.655884 
	C139.375854,201.567490 139.683426,205.948456 144.426788,210.730499 
	C156.031738,222.430222 167.675064,234.092224 179.350677,245.721481 
	C184.990234,251.338638 188.930176,251.262482 194.687119,245.509796 
	C202.340668,237.861908 209.964310,230.183868 217.570221,222.488571 
	C233.716934,206.152191 249.890167,189.841568 265.956024,173.425903 
	C272.306427,166.937210 270.608765,160.311310 261.494568,158.168900 
z"/>
</svg>